<svg width="1920" height="1001" viewBox="0 0 1920 1001" fill="none" xmlns="http://www.w3.org/2000/svg">
<g clip-path="url(#clip0_1_8)">
<rect width="1920" height="1001" fill="white"/>
<g opacity="0.05">
<path d="M280.754 295H300.118C321.19 306.748 341.219 348.625 360.203 420.631C372.542 471.982 385.262 515.659 398.361 551.662H401.209C410.321 430.768 414.877 362.458 414.877 346.73C418.105 345.025 421.712 344.172 425.698 344.172L417.725 333.087V327.687C417.725 312.907 428.641 302.011 450.473 295H455.883C474.108 298.6 483.221 307.696 483.221 322.286C474.108 564.263 462.243 685.251 447.625 685.251C436.804 692.641 426.837 696.336 417.725 696.336C386.971 696.336 361.437 663.555 341.124 597.992C332.011 573.737 318.343 528.26 300.118 461.56H297.27C279.425 619.783 266.61 698.894 258.827 698.894L245.158 701.737H239.748C217.916 700.6 207 690.557 207 671.608C237.944 427.737 257.973 305.801 267.085 305.801L280.754 295Z" fill="#000AFF"/>
<path d="M610.51 295H633.006C676.29 295 720.049 332.14 764.282 406.419C769.788 420.82 772.54 433.8 772.54 445.359V453.886C772.54 508.459 737.135 575.253 666.323 654.27C631.772 685.156 603.865 700.979 582.603 701.737H557.544C522.613 701.737 500.306 665.544 490.624 593.16V542.851C490.624 479.751 506.476 412.956 538.18 342.467C563.429 310.822 587.539 295 610.51 295ZM563.239 556.778C563.239 587.096 569.694 605.666 582.603 612.488H585.451C622.85 612.488 659.204 571.653 694.515 489.983C698.122 482.783 699.926 472.55 699.926 459.286C699.926 433.705 677.619 408.693 633.006 384.249H621.9C591.336 384.249 571.782 434.369 563.239 534.608V556.778Z" fill="#000AFF"/>
<path d="M1136.75 295H1154.12C1181.46 295 1203.39 317.928 1219.9 363.784V369.469C1217.44 386.712 1208.89 395.334 1194.27 395.334H1188.58C1177.38 395.334 1164.85 384.817 1150.99 363.784C1089.86 423.284 1059.3 475.772 1059.3 521.249V524.091C1066.13 587.191 1084.26 618.741 1113.69 618.741C1145.58 618.741 1171.49 602.445 1191.43 569.853C1191.43 559.241 1202.91 552.609 1225.88 549.956H1231.58C1250.56 553.746 1260.06 563.315 1260.06 578.664V581.506C1260.06 607.277 1235.19 639.679 1185.45 678.714C1157.35 694.062 1133.43 701.737 1113.69 701.737H1102.3C1043.45 701.737 1004.24 656.828 984.689 567.01V526.934C984.689 477.477 1014.3 413.525 1073.54 335.077C1101.82 308.359 1122.89 295 1136.75 295Z" fill="#000AFF"/>
<path d="M1422.37 296.99H1433.48C1453.41 296.99 1467.36 334.129 1475.34 408.409C1477.23 408.409 1482.84 435.221 1492.14 488.846H1500.4C1517.67 488.846 1527.92 502.774 1531.15 530.629V544.556C1531.15 557.252 1520.9 567.484 1500.4 575.253L1519.76 675.303C1516.15 695.768 1506.95 706 1492.14 706H1480.75C1453.03 706 1439.17 676.345 1439.17 617.035C1437.27 594.676 1434.43 583.496 1430.63 583.496C1376.71 599.413 1349.76 613.34 1349.76 625.278C1349.76 677.198 1338.65 703.158 1316.44 703.158H1302.49C1283.88 699.557 1274.58 690.272 1274.58 675.303V669.903C1274.58 645.648 1307.99 539.914 1374.81 352.699C1385.45 315.559 1401.3 296.99 1422.37 296.99ZM1411.26 438.822C1411.26 442.611 1401.96 470.466 1383.36 522.386H1386.21C1410.88 513.101 1424.74 508.459 1427.78 508.459C1418.48 468.666 1413.83 445.454 1413.83 438.822H1411.26Z" fill="#000AFF"/>
<path d="M1653.31 295H1666.7C1716.63 295 1755.92 328.918 1784.59 396.755C1788.2 403.766 1790 413.525 1790 426.031V452.749C1790 489.131 1739.98 535.555 1639.93 592.023H1602.34V634.942C1602.34 679.472 1591.61 701.737 1570.16 701.737H1556.78C1544.25 696.052 1537.98 687.999 1537.98 677.577V377.996C1537.98 352.036 1547.86 332.424 1567.6 319.16H1586.11C1623.32 303.053 1645.72 295 1653.31 295ZM1599.78 391.355C1597.88 466.203 1596.08 506.374 1594.37 511.869C1599.11 526.081 1603.57 533.187 1607.75 533.187H1615.72C1685.4 501.542 1720.23 463.171 1720.23 418.073C1713.78 389.46 1690.52 375.154 1650.47 375.154C1621.04 377.427 1604.14 382.828 1599.78 391.355Z" fill="#000AFF"/>
</g>
<ellipse cx="973.5" cy="1122" rx="1067.5" ry="264" fill="#000AFF"/>
</g>
<defs>
<clipPath id="clip0_1_8">
<rect width="1920" height="1001" fill="white"/>
</clipPath>
</defs>
</svg>
