<svg width="95" height="84" viewBox="0 0 95 84" fill="none" xmlns="http://www.w3.org/2000/svg">
<path d="M31.8126 66.3896C55.016 66.3896 67.7051 47.1675 67.7051 30.4993C67.7051 29.9531 67.691 29.4091 67.6699 28.8686C70.1331 27.0881 72.2725 24.8662 73.9616 22.3375C71.7025 23.3411 69.2675 24.0182 66.7198 24.3229C69.3238 22.762 71.3225 20.2903 72.2655 17.345C69.8234 18.7905 67.128 19.8413 64.2566 20.4071C61.9482 17.9551 58.6756 16.4216 55.0442 16.4216C48.0768 16.4216 42.4325 22.0708 42.4325 29.0347C42.4325 30.0249 42.5381 30.9876 42.7563 31.911C32.27 31.3839 22.9802 26.3646 16.7588 18.7321C15.675 20.595 15.0486 22.7619 15.0486 25.0717C15.0486 29.4485 17.2726 33.3115 20.6647 35.5721C18.5956 35.508 16.6462 34.9393 14.9501 33.9935C14.943 34.0462 14.9431 34.099 14.9431 34.1546C14.9431 40.2641 19.2924 45.3644 25.0633 46.5214C24.0077 46.8093 22.8887 46.9648 21.7415 46.9648C20.9251 46.9648 20.1369 46.8845 19.3698 46.7374C20.9744 51.749 25.6334 55.396 31.151 55.4987C26.8369 58.8818 21.3967 60.8981 15.485 60.8981C14.4716 60.8981 13.4651 60.8404 12.4799 60.7236C18.0608 64.3009 24.6904 66.3896 31.8126 66.3896Z" fill="#000AFF"/>
<path d="M3 14.3404C3.98032 13.9839 4.89067 12.4907 5.57259 11.7853C7.52695 9.76355 9.49929 7.71957 11.9778 6.34261C14.1977 5.10932 16.5317 4.1094 18.7505 3" stroke="#000AFF" stroke-width="5" stroke-linecap="round"/>
<path d="M73.7295 3C79.7913 3 84.4232 9.47549 87.5725 13.8679C89.5506 16.6269 92.0001 20.2672 92.0001 23.7907" stroke="#000AFF" stroke-width="5" stroke-linecap="round"/>
<path d="M46.8101 80.3194C49.0868 81.0123 52.2396 79.8265 54.4753 79.3744C58.0212 78.6572 62.0087 78.2935 65.3257 76.8193C67.7319 75.7499 69.8529 74.0573 71.6259 72.1291C72.3484 71.3434 73.901 70.1551 73.901 68.979" stroke="#000AFF" stroke-width="5" stroke-linecap="round"/>
</svg>
