<svg width="78" height="81" viewBox="0 0 78 81" fill="none" xmlns="http://www.w3.org/2000/svg">
<path d="M61.4419 21.5824C61.2683 21.071 61.0611 20.9365 60.7374 20.8086C60.0296 20.5463 58.8307 20.9432 58.8307 20.9432C58.8307 20.9432 16.387 36.2024 13.9622 37.8911C13.4401 38.2544 13.2652 38.4697 13.1784 38.7186C12.7592 39.9162 14.0651 40.4477 14.0651 40.4477L25.0049 44.0136C25.0049 44.0136 25.4126 44.0741 25.558 43.98C28.0467 42.4056 50.597 28.1691 51.8975 27.6914C52.1027 27.6309 52.2547 27.6981 52.2144 27.8394C51.6936 29.6695 32.1077 47.0748 32.1077 47.0748C32.1077 47.0748 32.033 47.169 31.9859 47.2767L31.9603 47.2632L30.9397 58.1155C30.9397 58.1155 30.5118 61.4392 33.8361 58.1155C36.1815 55.7674 38.4509 53.8029 39.5866 52.8542C43.3482 55.4512 47.3964 58.3241 49.1437 59.8244C50.021 60.578 50.7551 60.6991 51.3593 60.6789C53.0177 60.6183 53.4806 58.7951 53.4806 58.7951C53.4806 58.7951 61.2151 27.6645 61.4735 23.4931C61.499 23.0827 61.534 22.8271 61.5367 22.5445C61.5414 22.1542 61.5051 21.764 61.4419 21.5824Z" fill="#000AFF"/>
<path d="M3 23.0989C4.26479 18.7375 5.59214 15.3467 9.68552 13.0494C12.077 11.7072 14.639 10.4842 17.2474 9.61475" stroke="#000AFF" stroke-width="5" stroke-linecap="round"/>
<path d="M29.7139 75C33.4232 77.0439 38.2462 77.5442 42.4206 77.5442C46.8058 77.5442 51.8879 77.3853 53.1202 72.4558" stroke="#000AFF" stroke-width="5" stroke-linecap="round"/>
<path d="M56.1731 3C60.1399 3.17247 64.1718 4.70424 66.9576 7.55124C70.1257 10.789 72.2324 14.9611 75 18.5194" stroke="#000AFF" stroke-width="5" stroke-linecap="round"/>
</svg>
