<svg width="919" height="263" viewBox="0 0 919 263" fill="none" xmlns="http://www.w3.org/2000/svg">
<path d="M47.377 0.0630746C50.1676 0.0630746 53.4868 3.17475 57.3344 9.39811V12.2995C57.3344 16.5045 52.4509 19.0275 42.6837 19.8685C42.6837 20.2469 42.1129 20.4362 40.9713 20.4362C42.9163 35.5741 43.8888 46.8224 43.8888 54.1811V57.6502C43.8888 73.2506 38.4344 83.742 27.5256 89.1244C24.0162 89.8813 21.4793 90.2597 19.9148 90.2597H17.5682C12.1984 90.2597 6.34231 85.9917 0 77.4556V73.9865C0 70.4543 2.34665 68.3098 7.03996 67.5529C8.73124 67.5529 11.6487 70.0759 15.7923 75.1218C16.4689 75.5003 17.2511 75.6895 18.139 75.6895H18.7098C25.3481 75.6895 28.6672 68.52 28.6672 54.1811V50.1443C28.2867 35.3848 27.5045 28.0051 26.3206 28.0051C22.2615 31.1168 18.9424 32.6726 16.3631 32.6726C12.4309 32.6726 9.70373 31.306 8.18157 28.5728V24.536C17.5259 15.8738 29.4283 7.71612 43.8888 0.0630746H47.377Z" fill="black"/>
<path d="M85.3674 0H90.3778C100.018 0 109.764 8.24175 119.616 24.7252C120.842 27.921 121.455 30.8014 121.455 33.3665V35.2587C121.455 47.369 113.57 62.1915 97.7983 79.7263C90.103 86.5804 83.8876 90.0915 79.152 90.2597H73.5707C65.7908 90.2597 60.8227 82.2282 58.6663 66.1652V55.001C58.6663 40.9985 62.1969 26.176 69.258 10.5335C74.8815 3.51115 80.2513 0 85.3674 0ZM74.8392 56.7041C74.8392 63.432 76.2768 67.5529 79.152 69.0667H79.7862C88.1158 69.0667 96.2128 60.005 104.077 41.8815C104.881 40.2836 105.282 38.013 105.282 35.0695C105.282 29.3928 100.314 23.8422 90.3778 18.4178H87.9043C81.0969 18.4178 76.7419 29.5399 74.8392 51.7842V56.7041Z" fill="black"/>
<path d="M134.393 0H135.598C138.854 0 141.137 2.24966 142.448 6.74898C141.603 19.0275 140.778 45.645 139.975 86.6014C137.945 89.0403 136.698 90.2597 136.233 90.2597H131.92C129.425 90.2597 127.163 88.83 125.134 85.9707V84.7092C126.783 48.3362 127.607 21.95 127.607 5.55056C129.552 1.85019 131.814 0 134.393 0Z" fill="black"/>
<path d="M161.221 0H165.534C170.227 2.60708 174.688 11.9001 178.916 27.879C181.665 39.2744 184.498 48.9669 187.415 56.9564H188.049C190.079 30.1286 191.094 14.9697 191.094 11.4796C191.812 11.1011 192.616 10.9119 193.504 10.9119L191.728 8.45199V7.25358C191.728 3.9737 194.159 1.55584 199.022 0H200.227C204.286 0.798945 206.315 2.81733 206.315 6.05516C204.286 59.7527 201.643 86.6014 198.387 86.6014C195.977 88.2413 193.757 89.0613 191.728 89.0613C184.878 89.0613 179.191 81.7867 174.667 67.2375C172.638 61.8551 169.593 51.7632 165.534 36.9617H164.9C160.925 72.0732 158.071 89.629 156.338 89.629L153.294 90.2597H152.088C147.226 90.0074 144.795 87.7788 144.795 83.5738C151.687 29.4558 156.148 2.39683 158.177 2.39683L161.221 0Z" fill="black"/>
<path d="M278.11 0H282.423C286.017 0 288.067 2.45991 288.575 7.37973C288.575 9.01967 288.363 12.699 287.941 18.4178C293.014 17.1983 296.524 16.5886 298.469 16.5886C298.892 16.5886 299.505 16.7989 300.308 17.2194C301.112 16.7989 301.725 16.5886 302.147 16.5886C303.796 18.3968 304.621 19.427 304.621 19.6793V25.7975C304.621 31.5163 300.097 34.3756 291.048 34.3756C288.173 34.67 286.736 35.0905 286.736 35.6371C284.917 71.6317 282.042 89.629 278.11 89.629C278.11 90.0495 277.899 90.2597 277.476 90.2597H273.797C269.231 89.5869 266.948 87.3373 266.948 83.5108V82.88C266.948 80.9457 268.808 67.0273 272.529 41.1246H271.895C267.117 42.7646 263.417 43.5845 260.796 43.5845C256.271 41.9446 254.009 39.4847 254.009 36.2048V33.7449C254.009 28.783 260.394 25.1037 273.163 22.7069V10.4073C273.163 5.15109 274.812 1.68199 278.11 0Z" fill="black"/>
<path d="M315.149 0H318.257C320.16 0.798945 322.02 2.64913 323.838 5.55056C322.57 18.5439 321.935 31.6424 321.935 44.846H322.57C331.364 43.2061 337.749 41.7554 341.723 40.4939C342.146 24.1365 342.358 12.8882 342.358 6.74898C342.358 4.68854 343.985 2.43888 347.241 0H350.983C354.704 0.546646 356.564 2.39683 356.564 5.55056C356.564 11.1432 356.353 21.172 355.93 35.6371C358.805 39.8842 360.243 42.7435 360.243 44.2153V46.0444C360.243 46.507 359.017 47.9367 356.564 50.3335V66.2914C359.44 68.7303 360.877 70.16 360.877 70.5805V73.6711C358.763 83.0903 355.465 87.7998 350.983 87.7998H349.715C343.964 87.7998 341.089 81.4503 341.089 68.7513V61.3716L341.723 57.0825L321.935 63.2638C322.358 68.7723 322.57 72.8511 322.57 75.5003V83.5108C322.57 88.0101 319.906 90.2597 314.578 90.2597H312.676C308.574 90.2597 306.524 85.3399 306.524 75.5003V44.846C306.524 38.1181 306.925 28.6989 307.729 16.5886C307.348 11.4165 307.158 8.34687 307.158 7.37973C308.934 2.45991 311.597 0 315.149 0Z" fill="black"/>
<path d="M398.614 0H400.39C404.153 0 406.753 2.79631 408.191 8.38892V8.95659C408.191 13.2877 402.588 16.4835 391.384 18.5439C391.384 18.8383 386.563 20.2259 376.923 22.7069L377.557 25.7344C377.557 28.5097 377.748 34.2705 378.128 43.0169C390.136 37.4663 397.155 34.691 399.185 34.691H401.024C403.815 36.6253 405.21 38.8119 405.21 41.2508V42.4492C405.21 48.5464 400.601 52.3309 391.384 53.8026C382.885 58.1758 378.276 60.3624 377.557 60.3624V71.7158C395.4 62.9695 404.808 58.5963 405.781 58.5963H406.986C410.199 58.5963 411.806 60.5726 411.806 64.5253C411.806 72.6829 408 77.4766 400.39 78.9063C381.236 86.4753 370.623 90.2597 368.551 90.2597H366.141C364.069 90.2597 362.864 86.4753 362.526 78.9063V16.1471C362.526 12.2785 366.923 9.48221 375.718 7.75817C380.073 5.36134 387.705 2.77528 398.614 0Z" fill="black"/>
<path d="M507.575 0H513.092C516.771 0 519.646 1.61891 521.718 4.85674V8.51507C521.718 10.5335 511.697 25.377 491.655 53.0457C486.243 61.4557 482.353 68.1626 479.986 73.1665H481.191C484.531 73.1665 487.195 73.3768 489.182 73.7973C493.114 73.3768 497.004 73.1665 500.852 73.1665H502.691C506.666 73.1665 509.118 76.2151 510.048 82.3123C509.541 87.6106 507.49 90.2597 503.896 90.2597H482.459C466.519 90.2597 458.549 87.8208 458.549 82.9431C458.126 82.9431 457.914 82.3334 457.914 81.1139V78.654C457.914 77.1823 464.658 66.817 478.146 47.5582C478.146 47.2218 484.489 37.6766 497.173 18.9224V18.2916H496.539L469.584 23.1484C463.031 22.2233 459.754 19.7844 459.754 15.8317V12.8041C459.754 10.155 464.447 7.50588 473.834 4.85674C489.182 1.61891 500.429 0 507.575 0Z" fill="black"/>
<path d="M549.497 0H554.508C564.148 0 573.894 8.24175 583.746 24.7252C584.972 27.921 585.585 30.8014 585.585 33.3665V35.2587C585.585 47.369 577.699 62.1915 561.928 79.7263C554.233 86.5804 548.017 90.0915 543.282 90.2597H537.701C529.921 90.2597 524.953 82.2282 522.796 66.1652V55.001C522.796 40.9985 526.327 26.176 533.388 10.5335C539.011 3.51115 544.381 0 549.497 0ZM538.969 56.7041C538.969 63.432 540.407 67.5529 543.282 69.0667H543.916C552.246 69.0667 560.343 60.005 568.207 41.8815C569.01 40.2836 569.412 38.013 569.412 35.0695C569.412 29.3928 564.444 23.8422 554.508 18.4178H552.034C545.227 18.4178 540.872 29.5399 538.969 51.7842V56.7041Z" fill="black"/>
<path d="M614.189 0H619.199C628.84 0 638.586 8.24175 648.437 24.7252C649.663 27.921 650.277 30.8014 650.277 33.3665V35.2587C650.277 47.369 642.391 62.1915 626.62 79.7263C618.924 86.5804 612.709 90.0915 607.973 90.2597H602.392C594.612 90.2597 589.644 82.2282 587.488 66.1652V55.001C587.488 40.9985 591.018 26.176 598.079 10.5335C603.703 3.51115 609.073 0 614.189 0ZM603.661 56.7041C603.661 63.432 605.098 67.5529 607.973 69.0667H608.608C616.937 69.0667 625.034 60.005 632.899 41.8815C633.702 40.2836 634.104 38.013 634.104 35.0695C634.104 29.3928 629.136 23.8422 619.199 18.4178H616.726C609.918 18.4178 605.563 29.5399 603.661 51.7842V56.7041Z" fill="black"/>
<path d="M709.704 0C713.89 0 718.118 19.6582 722.389 58.9747C725.221 68.3518 726.638 74.3649 726.638 77.0141V80.6093C726.131 84.2256 724.312 86.0337 721.184 86.0337H718.139C712.727 86.0337 709.302 79.2217 707.865 65.5976C705.92 47.5582 704.503 38.5386 703.615 38.5386C697.611 59.7737 693.172 70.3912 690.296 70.3912L686.681 71.022C681.185 71.022 677.358 63.2007 675.202 47.5582C674.694 47.5582 674.081 44.9512 673.363 39.737H672.792C669.578 58.365 667.147 74.1967 665.498 87.2322C663.934 89.2505 662.327 90.2597 660.678 90.2597H658.839C656.471 90.2597 654.462 88.6618 652.813 85.4661V81.8077C657.126 46.5701 661.756 20.7095 666.703 4.226C668.437 2.62811 670.065 1.82916 671.587 1.82916H672.792C677.781 1.82916 681.417 9.65041 683.7 25.2929C685.307 29.582 686.512 34.5859 687.316 40.3047H687.886C696.681 13.4349 703.15 0 707.294 0H709.704Z" fill="black"/>
<path d="M785.177 0C789.363 0 793.591 19.6582 797.862 58.9747C800.695 68.3518 802.111 74.3649 802.111 77.0141V80.6093C801.604 84.2256 799.786 86.0337 796.657 86.0337H793.613C788.201 86.0337 784.776 79.2217 783.338 65.5976C781.393 47.5582 779.977 38.5386 779.089 38.5386C773.085 59.7737 768.645 70.3912 765.77 70.3912L762.155 71.022C756.658 71.022 752.832 63.2007 750.675 47.5582C750.168 47.5582 749.555 44.9512 748.836 39.737H748.265C745.052 58.365 742.62 74.1967 740.971 87.2322C739.407 89.2505 737.8 90.2597 736.151 90.2597H734.312C731.944 90.2597 729.936 88.6618 728.287 85.4661V81.8077C732.6 46.5701 737.23 20.7095 742.177 4.226C743.91 2.62811 745.538 1.82916 747.06 1.82916H748.265C753.254 1.82916 756.891 9.65041 759.174 25.2929C760.781 29.582 761.986 34.5859 762.789 40.3047H763.36C772.154 13.4349 778.624 0 782.767 0H785.177Z" fill="black"/>
<path d="M839.531 0H841.307C845.07 0 847.67 2.79631 849.108 8.38892V8.95659C849.108 13.2877 843.505 16.4835 832.301 18.5439C832.301 18.8383 827.481 20.2259 817.84 22.7069L818.474 25.7344C818.474 28.5097 818.665 34.2705 819.045 43.0169C831.053 37.4663 838.072 34.691 840.102 34.691H841.941C844.732 36.6253 846.127 38.8119 846.127 41.2508V42.4492C846.127 48.5464 841.518 52.3309 832.301 53.8026C823.802 58.1758 819.193 60.3624 818.474 60.3624V71.7158C836.317 62.9695 845.725 58.5963 846.698 58.5963H847.903C851.116 58.5963 852.723 60.5726 852.723 64.5253C852.723 72.6829 848.918 77.4766 841.307 78.9063C822.153 86.4753 811.54 90.2597 809.468 90.2597H807.058C804.986 90.2597 803.781 86.4753 803.443 78.9063V16.1471C803.443 12.2785 807.841 9.48221 816.635 7.75817C820.99 5.36134 828.622 2.77528 839.531 0Z" fill="black"/>
<path d="M884.625 0H887.098C901.812 0 909.169 8.53609 909.169 25.6083C909.169 35.4059 902.214 44.3625 888.303 52.4781C903.99 67.9103 913.609 75.6264 917.161 75.6264L919 78.0863V81.1139C919 85.7814 915.512 88.83 908.535 90.2597H906.696C902.891 90.2597 891.03 79.6842 871.116 58.5332H870.545V80.4832C870.545 84.1415 868.706 87.1901 865.027 89.629H862.553C858.537 89.629 855.471 87.7998 853.357 84.1415V78.0863C857.459 29.6871 860.926 5.48749 863.759 5.48749C867.522 3.4691 870.397 2.45991 872.384 2.45991H873.589C874.012 2.45991 874.223 2.64913 874.223 3.02758C877.521 1.00919 880.988 0 884.625 0ZM872.384 38.4124C873.103 38.4124 874.942 39.2324 877.902 40.8723C887.711 35.6161 892.616 29.9184 892.616 23.7791V21.95C892.066 17.8711 890.016 15.8317 886.464 15.8317H884.625C878.959 15.8317 875.682 19.49 874.794 26.8067L872.384 38.4124Z" fill="black"/>
<path d="M98.8765 148.015H102.745C108.834 148.015 113.718 153.103 117.396 163.279V164.541C116.846 168.367 114.944 170.28 111.688 170.28H110.42C107.925 170.28 105.134 167.947 102.048 163.279C88.4329 176.483 81.6255 188.13 81.6255 198.222V198.853C83.1476 212.856 87.1856 219.857 93.7393 219.857C100.843 219.857 106.614 216.241 111.054 209.008C111.054 206.653 113.612 205.182 118.728 204.593H119.996C124.225 205.434 126.339 207.557 126.339 210.963V211.594C126.339 217.313 120.8 224.503 109.722 233.166C103.464 236.572 98.1366 238.275 93.7393 238.275H91.2023C78.0949 238.275 69.3637 228.309 65.0086 208.377V199.484C65.0086 188.509 71.6046 174.317 84.7966 156.909C91.0966 150.98 95.7899 148.015 98.8765 148.015Z" fill="black"/>
<path d="M154.943 148.015H159.953C169.593 148.015 179.339 156.257 189.191 172.74C190.417 175.936 191.03 178.816 191.03 181.381V183.274C191.03 195.384 183.145 210.207 167.373 227.741C159.678 234.595 153.463 238.107 148.727 238.275H143.146C135.366 238.275 130.398 230.243 128.241 214.18V203.016C128.241 189.014 131.772 174.191 138.833 158.548C144.457 151.526 149.826 148.015 154.943 148.015ZM144.414 204.719C144.414 211.447 145.852 215.568 148.727 217.082H149.361C157.691 217.082 165.788 208.02 173.652 189.897C174.456 188.299 174.857 186.028 174.857 183.085C174.857 177.408 169.889 171.857 159.953 166.433H157.479C150.672 166.433 146.317 177.555 144.414 199.799V204.719Z" fill="black"/>
<path d="M250.458 148.015C254.644 148.015 258.872 167.673 263.142 206.99C265.975 216.367 267.392 222.38 267.392 225.029V228.624C266.884 232.241 265.066 234.049 261.937 234.049H258.893C253.481 234.049 250.056 227.237 248.618 213.613C246.673 195.573 245.257 186.554 244.369 186.554C238.365 207.789 233.925 218.406 231.05 218.406L227.435 219.037C221.938 219.037 218.112 211.216 215.955 195.573C215.448 195.573 214.835 192.966 214.116 187.752H213.545C210.332 206.38 207.901 222.212 206.252 235.247C204.687 237.266 203.081 238.275 201.432 238.275H199.592C197.225 238.275 195.216 236.677 193.567 233.481V229.823C197.88 194.585 202.51 168.725 207.457 152.241C209.19 150.643 210.818 149.844 212.34 149.844H213.545C218.535 149.844 222.171 157.665 224.454 173.308C226.061 177.597 227.266 182.601 228.069 188.32H228.64C237.435 161.45 243.904 148.015 248.048 148.015H250.458Z" fill="black"/>
<path d="M325.931 148.015C330.117 148.015 334.345 167.673 338.616 206.99C341.449 216.367 342.865 222.38 342.865 225.029V228.624C342.358 232.241 340.539 234.049 337.411 234.049H334.366C328.954 234.049 325.529 227.237 324.092 213.613C322.147 195.573 320.73 186.554 319.842 186.554C313.838 207.789 309.399 218.406 306.524 218.406L302.908 219.037C297.412 219.037 293.585 211.216 291.429 195.573C290.922 195.573 290.308 192.966 289.59 187.752H289.019C285.805 206.38 283.374 222.212 281.725 235.247C280.161 237.266 278.554 238.275 276.905 238.275H275.066C272.698 238.275 270.69 236.677 269.041 233.481V229.823C273.353 194.585 277.983 168.725 282.93 152.241C284.664 150.643 286.292 149.844 287.814 149.844H289.019C294.008 149.844 297.644 157.665 299.928 173.308C301.534 177.597 302.739 182.601 303.543 188.32H304.114C312.908 161.45 319.377 148.015 323.521 148.015H325.931Z" fill="black"/>
<path d="M356.818 148.457H358.657C363.731 148.751 366.797 151.589 367.854 156.972C365.274 160.294 363.224 173.035 361.702 195.195L359.926 218.848C375.782 216.829 383.709 215.021 383.709 213.423C387.05 171.71 389.883 150.853 392.208 150.853L395.316 150.286H398.36C400.813 150.286 403.053 151.694 405.083 154.512V156.341C400.982 198.391 398.931 221.665 398.931 226.164V227.363C398.931 233.418 395.274 236.446 387.959 236.446C386.352 236.446 384.724 235.226 383.075 232.787C370.602 236.446 361.659 238.275 356.247 238.275H352.569C347.283 238.275 344.641 234.028 344.641 225.534V215.189C344.641 198.622 347.072 177.387 351.935 151.484C353.541 149.466 355.169 148.457 356.818 148.457Z" fill="black"/>
<path d="M424.237 148.015H428.55C433.243 150.622 437.704 159.915 441.932 175.894C444.68 187.289 447.513 196.982 450.431 204.971H451.065C453.094 178.144 454.109 162.985 454.109 159.495C454.828 159.116 455.631 158.927 456.519 158.927L454.743 156.467V155.269C454.743 151.989 457.174 149.571 462.037 148.015H463.242C467.301 148.814 469.331 150.832 469.331 154.07C467.301 207.768 464.658 234.616 461.403 234.616C458.993 236.256 456.773 237.076 454.743 237.076C447.894 237.076 442.207 229.802 437.682 215.253C435.653 209.87 432.609 199.778 428.55 184.977H427.915C423.941 220.088 421.087 237.644 419.353 237.644L416.309 238.275H415.104C410.241 238.022 407.81 235.794 407.81 231.589C414.702 177.471 419.163 150.412 421.192 150.412L424.237 148.015Z" fill="black"/>
<path d="M482.015 148.015H483.22C486.476 148.015 488.759 150.265 490.07 154.764C489.224 167.043 488.4 193.66 487.596 234.616C485.567 237.055 484.32 238.275 483.854 238.275H479.542C477.047 238.275 474.785 236.845 472.755 233.986V232.724C474.404 196.351 475.229 169.965 475.229 153.566C477.174 149.865 479.436 148.015 482.015 148.015Z" fill="black"/>
<path d="M516.644 148.015H520.957C524.551 148.015 526.602 150.475 527.109 155.395C527.109 157.035 526.898 160.714 526.475 166.433C531.549 165.213 535.058 164.604 537.003 164.604C537.426 164.604 538.039 164.814 538.842 165.234C539.646 164.814 540.259 164.604 540.682 164.604C542.331 166.412 543.155 167.442 543.155 167.694V173.813C543.155 179.531 538.631 182.391 529.582 182.391C526.707 182.685 525.27 183.106 525.27 183.652C523.452 219.647 520.576 237.644 516.644 237.644C516.644 238.065 516.433 238.275 516.01 238.275H512.331C507.765 237.602 505.482 235.352 505.482 231.526V230.895C505.482 228.961 507.342 215.042 511.063 189.14H510.429C505.651 190.78 501.951 191.6 499.33 191.6C494.805 189.96 492.543 187.5 492.543 184.22V181.76C492.543 176.798 498.928 173.119 511.697 170.722V158.422C511.697 153.166 513.346 149.697 516.644 148.015Z" fill="black"/>
<path d="M599.221 148.015C601.631 148.015 603.513 149.466 604.866 152.367V154.827C604.866 160.125 598.016 180.309 584.317 215.379C578.439 230.643 573.683 238.275 570.046 238.275H566.939C563.176 235.499 561.294 232.829 561.294 230.264C561.294 229.297 565.036 220.425 572.52 203.647V199.358C567.15 189.897 558.229 178.354 545.755 164.73C544.529 163.132 543.916 161.261 543.916 159.116V157.918C544.719 153.797 546.791 151.736 550.132 151.736H551.971C557.087 151.736 567.044 161.618 581.843 181.381C587.72 159.137 592.688 148.015 596.747 148.015H599.221Z" fill="black"/>
<path d="M629.41 224.588H631.376C634.674 224.588 636.535 227.489 636.958 233.292V236.446C636.958 245.066 630.319 253.392 617.043 261.423C614.971 262.474 613.259 263 611.906 263H610.32C607.91 262.664 606.705 261.465 606.705 259.405V258.269C606.705 256.125 609.496 253.749 615.077 251.142C620.912 245.549 623.829 238.948 623.829 231.337C625.351 226.837 627.212 224.588 629.41 224.588Z" fill="black"/>
<path d="M717.251 148.015H720.232C731.352 148.015 740.105 155.542 746.489 170.596C747.293 172.152 747.694 174.317 747.694 177.092V183.021C747.694 191.095 736.553 201.397 714.27 213.928H705.899V223.452C705.899 233.334 703.51 238.275 698.732 238.275H695.751C692.96 237.013 691.565 235.226 691.565 232.913V166.433C691.565 160.672 693.764 156.32 698.161 153.376H702.283C710.571 149.802 715.56 148.015 717.251 148.015ZM705.328 169.397C704.905 186.007 704.503 194.921 704.123 196.141C705.18 199.295 706.173 200.872 707.104 200.872H708.879C724.397 193.849 732.156 185.334 732.156 175.326C730.718 168.977 725.539 165.802 716.617 165.802C710.063 166.307 706.3 167.505 705.328 169.397Z" fill="black"/>
<path d="M782.767 148.457H785.241C789.68 148.457 792.788 156.698 794.564 173.182C794.987 173.182 796.234 179.132 798.306 191.032H800.145C803.993 191.032 806.276 194.123 806.995 200.304V203.395C806.995 206.212 804.712 208.483 800.145 210.207L804.458 232.409C803.655 236.95 801.604 239.221 798.306 239.221H795.769C789.596 239.221 786.509 232.64 786.509 219.479C786.086 214.517 785.452 212.036 784.607 212.036C772.598 215.568 766.594 218.659 766.594 221.308C766.594 232.829 764.121 238.59 759.174 238.59H756.066C751.923 237.791 749.851 235.731 749.851 232.409V231.21C749.851 225.828 757.292 202.364 772.176 160.819C774.543 152.577 778.074 148.457 782.767 148.457ZM780.294 179.931C780.294 180.772 778.222 186.953 774.078 198.475H774.713C780.209 196.414 783.296 195.384 783.972 195.384C781.901 186.554 780.865 181.403 780.865 179.931H780.294Z" fill="black"/>
<path d="M815.811 148.015H817.65C821.794 148.015 823.865 154.154 823.865 166.433C824.669 185.397 825.07 200.535 825.07 211.847C825.493 215.505 825.705 217.776 825.705 218.659C836.529 214.538 842.913 212.477 844.858 212.477H847.269C850.989 214.538 852.85 216.998 852.85 219.857V222.317C852.85 225.723 847.712 228.582 837.438 230.895C827.755 235.815 820.546 238.275 815.811 238.275H813.971C810.673 238.275 809.024 229.886 809.024 213.108V156.656C809.701 150.895 811.963 148.015 815.811 148.015Z" fill="black"/>
</svg>
