<svg width="657" height="90" viewBox="0 0 657 90" fill="none" xmlns="http://www.w3.org/2000/svg">
<path d="M56.125 0.5625C60.25 0.5625 64.4167 20.0417 68.625 59C71.4167 68.2917 72.8125 74.25 72.8125 76.875V80.4375C72.3125 84.0208 70.5208 85.8125 67.4375 85.8125H64.4375C59.1042 85.8125 55.7292 79.0625 54.3125 65.5625C52.3958 47.6875 51 38.75 50.125 38.75C44.2083 59.7917 39.8333 70.3125 37 70.3125L33.4375 70.9375C28.0208 70.9375 24.25 63.1875 22.125 47.6875C21.625 47.6875 21.0208 45.1042 20.3125 39.9375H19.75C16.5833 58.3958 14.1875 74.0833 12.5625 87C11.0208 89 9.4375 90 7.8125 90H6C3.66667 90 1.6875 88.4167 0.0625 85.25V81.625C4.3125 46.7083 8.875 21.0833 13.75 4.75C15.4583 3.16667 17.0625 2.375 18.5625 2.375H19.75C24.6667 2.375 28.25 10.125 30.5 25.625C32.0833 29.875 33.2708 34.8333 34.0625 40.5H34.625C43.2917 13.875 49.6667 0.5625 53.75 0.5625H56.125ZM109.688 0.5625H111.438C115.146 0.5625 117.708 3.33333 119.125 8.875V9.4375C119.125 13.7292 113.604 16.8958 102.562 18.9375C102.562 19.2292 97.8125 20.6042 88.3125 23.0625L88.9375 26.0625C88.9375 28.8125 89.125 34.5208 89.5 43.1875C101.333 37.6875 108.25 34.9375 110.25 34.9375H112.062C114.812 36.8542 116.188 39.0208 116.188 41.4375V42.625C116.188 48.6667 111.646 52.4167 102.562 53.875C94.1875 58.2083 89.6458 60.375 88.9375 60.375V71.625C106.521 62.9583 115.792 58.625 116.75 58.625H117.938C121.104 58.625 122.688 60.5833 122.688 64.5C122.688 72.5833 118.938 77.3333 111.438 78.75C92.5625 86.25 82.1042 90 80.0625 90H77.6875C75.6458 90 74.4583 86.25 74.125 78.75V16.5625C74.125 12.7292 78.4583 9.95833 87.125 8.25C91.4167 5.875 98.9375 3.3125 109.688 0.5625ZM180 0.5625C184.125 0.5625 188.292 20.0417 192.5 59C195.292 68.2917 196.688 74.25 196.688 76.875V80.4375C196.188 84.0208 194.396 85.8125 191.312 85.8125H188.312C182.979 85.8125 179.604 79.0625 178.188 65.5625C176.271 47.6875 174.875 38.75 174 38.75C168.083 59.7917 163.708 70.3125 160.875 70.3125L157.312 70.9375C151.896 70.9375 148.125 63.1875 146 47.6875C145.5 47.6875 144.896 45.1042 144.188 39.9375H143.625C140.458 58.3958 138.062 74.0833 136.438 87C134.896 89 133.312 90 131.688 90H129.875C127.542 90 125.562 88.4167 123.938 85.25V81.625C128.188 46.7083 132.75 21.0833 137.625 4.75C139.333 3.16667 140.938 2.375 142.438 2.375H143.625C148.542 2.375 152.125 10.125 154.375 25.625C155.958 29.875 157.146 34.8333 157.938 40.5H158.5C167.167 13.875 173.542 0.5625 177.625 0.5625H180ZM233.562 0.5625H235.312C239.021 0.5625 241.583 3.33333 243 8.875V9.4375C243 13.7292 237.479 16.8958 226.438 18.9375C226.438 19.2292 221.688 20.6042 212.188 23.0625L212.812 26.0625C212.812 28.8125 213 34.5208 213.375 43.1875C225.208 37.6875 232.125 34.9375 234.125 34.9375H235.938C238.688 36.8542 240.062 39.0208 240.062 41.4375V42.625C240.062 48.6667 235.521 52.4167 226.438 53.875C218.062 58.2083 213.521 60.375 212.812 60.375V71.625C230.396 62.9583 239.667 58.625 240.625 58.625H241.812C244.979 58.625 246.562 60.5833 246.562 64.5C246.562 72.5833 242.812 77.3333 235.312 78.75C216.438 86.25 205.979 90 203.938 90H201.562C199.521 90 198.333 86.25 198 78.75V16.5625C198 12.7292 202.333 9.95833 211 8.25C215.292 5.875 222.812 3.3125 233.562 0.5625ZM323.625 0.5625H330.312C338.562 0.5625 343.646 4 345.562 10.875V12.75C345.562 16.5417 342.917 18.5625 337.625 18.8125C332.167 16.7708 328.521 15.75 326.688 15.75C313.688 17.6667 307.188 21.9375 307.188 28.5625V30.375C307.188 33.0417 311.854 34.875 321.188 35.875C338.646 44.125 347.375 54.6667 347.375 67.5V70.5C347.375 81.6667 340.062 88.1667 325.438 90H319.375C308 90 299.896 85.3333 295.062 76C294.646 73.7917 294.438 71.9583 294.438 70.5V69.9375C294.979 64.2292 297.417 61.375 301.75 61.375C306.417 61.375 309.25 65.0417 310.25 72.375C312.417 74 314.25 74.8125 315.75 74.8125H317.562C325.271 74.8125 329.125 72.7708 329.125 68.6875C329.125 60.3542 320.188 53.6667 302.312 48.625C295.438 44.5833 292 39.7083 292 34V29.1875C292 15.9792 300.312 6.64583 316.938 1.1875C319.729 0.770833 321.958 0.5625 323.625 0.5625ZM384.188 0.5625H385.938C389.646 0.5625 392.208 3.33333 393.625 8.875V9.4375C393.625 13.7292 388.104 16.8958 377.062 18.9375C377.062 19.2292 372.312 20.6042 362.812 23.0625L363.438 26.0625C363.438 28.8125 363.625 34.5208 364 43.1875C375.833 37.6875 382.75 34.9375 384.75 34.9375H386.562C389.312 36.8542 390.688 39.0208 390.688 41.4375V42.625C390.688 48.6667 386.146 52.4167 377.062 53.875C368.688 58.2083 364.146 60.375 363.438 60.375V71.625C381.021 62.9583 390.292 58.625 391.25 58.625H392.438C395.604 58.625 397.188 60.5833 397.188 64.5C397.188 72.5833 393.438 77.3333 385.938 78.75C367.062 86.25 356.604 90 354.562 90H352.188C350.146 90 348.958 86.25 348.625 78.75V16.5625C348.625 12.7292 352.958 9.95833 361.625 8.25C365.917 5.875 373.438 3.3125 384.188 0.5625ZM431.25 0.5625H435.062C441.062 0.5625 445.875 5.60417 449.5 15.6875V16.9375C448.958 20.7292 447.083 22.625 443.875 22.625H442.625C440.167 22.625 437.417 20.3125 434.375 15.6875C420.958 28.7708 414.25 40.3125 414.25 50.3125V50.9375C415.75 64.8125 419.729 71.75 426.188 71.75C433.188 71.75 438.875 68.1667 443.25 61C443.25 58.6667 445.771 57.2083 450.812 56.625H452.062C456.229 57.4583 458.312 59.5625 458.312 62.9375V63.5625C458.312 69.2292 452.854 76.3542 441.938 84.9375C435.771 88.3125 430.521 90 426.188 90H423.688C410.771 90 402.167 80.125 397.875 60.375V51.5625C397.875 40.6875 404.375 26.625 417.375 9.375C423.583 3.5 428.208 0.5625 431.25 0.5625ZM484.688 0.5625H488.938C492.479 0.5625 494.5 3 495 7.875C495 9.5 494.792 13.1458 494.375 18.8125C499.375 17.6042 502.833 17 504.75 17C505.167 17 505.771 17.2083 506.562 17.625C507.354 17.2083 507.958 17 508.375 17C510 18.7917 510.812 19.8125 510.812 20.0625V26.125C510.812 31.7917 506.354 34.625 497.438 34.625C494.604 34.9167 493.188 35.3333 493.188 35.875C491.396 71.5417 488.562 89.375 484.688 89.375C484.688 89.7917 484.479 90 484.062 90H480.438C475.938 89.3333 473.688 87.1042 473.688 83.3125V82.6875C473.688 80.7708 475.521 66.9792 479.188 41.3125H478.562C473.854 42.9375 470.208 43.75 467.625 43.75C463.167 42.125 460.938 39.6875 460.938 36.4375V34C460.938 29.0833 467.229 25.4375 479.812 23.0625V10.875C479.812 5.66667 481.438 2.22917 484.688 0.5625ZM522.312 0.5625H523.5C526.708 0.5625 528.958 2.79167 530.25 7.25C529.417 19.4167 528.604 45.7917 527.812 86.375C525.812 88.7917 524.583 90 524.125 90H519.875C517.417 90 515.188 88.5833 513.188 85.75V84.5C514.812 48.4583 515.625 22.3125 515.625 6.0625C517.542 2.39583 519.771 0.5625 522.312 0.5625ZM558.25 0.5625H563.188C572.688 0.5625 582.292 8.72917 592 25.0625C593.208 28.2292 593.812 31.0833 593.812 33.625V35.5C593.812 47.5 586.042 62.1875 570.5 79.5625C562.917 86.3542 556.792 89.8333 552.125 90H546.625C538.958 90 534.062 82.0417 531.938 66.125V55.0625C531.938 41.1875 535.417 26.5 542.375 11C547.917 4.04167 553.208 0.5625 558.25 0.5625ZM547.875 58.125C547.875 64.7917 549.292 68.875 552.125 70.375H552.75C560.958 70.375 568.938 61.3958 576.688 43.4375C577.479 41.8542 577.875 39.6042 577.875 36.6875C577.875 31.0625 572.979 25.5625 563.188 20.1875H560.75C554.042 20.1875 549.75 31.2083 547.875 53.25V58.125ZM612.5 0.5625H616.75C621.375 3.14583 625.771 12.3542 629.938 28.1875C632.646 39.4792 635.438 49.0833 638.312 57H638.938C640.938 30.4167 641.938 15.3958 641.938 11.9375C642.646 11.5625 643.438 11.375 644.312 11.375L642.562 8.9375V7.75C642.562 4.5 644.958 2.10417 649.75 0.5625H650.938C654.938 1.35417 656.938 3.35417 656.938 6.5625C654.938 59.7708 652.333 86.375 649.125 86.375C646.75 88 644.562 88.8125 642.562 88.8125C635.812 88.8125 630.208 81.6042 625.75 67.1875C623.75 61.8542 620.75 51.8542 616.75 37.1875H616.125C612.208 71.9792 609.396 89.375 607.688 89.375L604.688 90H603.5C598.708 89.75 596.312 87.5417 596.312 83.375C603.104 29.75 607.5 2.9375 609.5 2.9375L612.5 0.5625Z" fill="white"/>
</svg>
